<svg height="485pt" viewBox="0 0 485 485" width="485pt" xmlns="http://www.w3.org/2000/svg"><path d="m144.753906 275.964844c12.160156 16.476562 26.132813 31.046875 44.183594 41.355468 20.441406 11.683594 42.449219 15.207032 65.660156 14.132813 10.84375-.519531 14.105469-3.347656 14.605469-14.152344.335937-7.402343 1.191406-14.785156 4.835937-21.4375 3.582032-6.523437 9.015626-7.757812 15.285157-3.699219 3.121093 2.050782 5.75 4.617188 8.238281 7.363282 6.109375 6.667968 12.023438 13.574218 18.351562 20.023437 7.957032 8.101563 17.394532 12.875 29.234376 11.902344l45.875.019531c7.382812-.5 11.222656-9.550781 6.984374-17.816406-2.984374-5.769531-6.902343-10.902344-11.042968-15.882812-9.375-11.261719-20.421875-20.859376-30.867188-31.046876-9.414062-9.191406-10.011718-14.527343-2.449218-25.132812 8.277343-11.585938 17.152343-22.710938 25.492187-34.234375 7.78125-10.765625 15.765625-21.515625 19.839844-34.390625 2.609375-8.21875.300781-11.839844-8.09375-13.292969-1.453125-.238281-2.964844-.238281-4.4375-.238281l-49.917969-.0625c-6.148438-.097656-9.53125 2.589844-11.703125 8.039062-2.945313 7.367188-5.96875 14.730469-9.476563 21.816407-7.917968 16.121093-16.777343 31.703125-29.195312 44.878906-2.746094 2.902344-5.792969 6.585937-10.367188 5.074219-5.710937-2.089844-7.402343-11.519532-7.304687-14.703125l-.042969-57.621094c-1.109375-8.214844-2.945312-11.898437-11.121094-13.496094h-51.847656c-6.902344 0-10.386718 2.691407-14.089844 7.007813-2.109374 2.511718-2.769531 4.121094 1.613282 4.957031 8.59375 1.628906 13.472656 7.203125 14.746094 15.824219 2.050781 13.792968 1.910156 27.640625.71875 41.472656-.339844 4.039062-1.035157 8.0625-2.632813 11.84375-2.503906 5.949219-6.566406 7.144531-11.878906 3.484375-4.792969-3.304687-8.175781-7.960937-11.503907-12.636719-12.4375-17.578125-22.347656-36.519531-30.449218-56.425781-2.328125-5.753906-6.367188-9.234375-12.457032-9.335937-14.96875-.238282-29.953124-.273438-44.941406.019531-8.996094.160156-11.683594 4.539062-8 12.71875 16.300782 36.28125 34.453125 71.546875 58.15625 103.671875zm0 0"/><path d="m0 0v485h485v-485zm455 455h-425v-425h425zm0 0"/></svg>